#!OML:ASF X:\für Bonn\!DataBase\2005_08_12_Daniel\c3d\Daniel.ASF
:FULLY-SPECIFIED
:DEGREES
77
root 11.8119 15.7728 11.5339 718.551 -128.52 -4.74827
lowerback 39.4366 6.05058 -5.73708
upperback 9.45461 2.23168 -5.56979
thorax -8.60024 0.19891 -3.75836
lowerneck -8.87409 -0.359088 -6.61479
upperneck 1.92278 0.196632 -0.416813
head 2.14277 -0.00554767 1.01974
rclavicle -4.53229e-014 2.38542e-014
rhumerus -37.6341 -3.77838 -80.5488
rradius 77.589
rwrist 10.9622
rhand -33.692 7.63462
rfingers 7.12502
rthumb -6.88226 -22.2335
lclavicle -4.53229e-014 2.38542e-014
lhumerus 145.969 151.429 250.25
lradius 76.7043
lwrist -26.4117
lhand -29.7985 7.3225
lfingers 7.12502
lthumb -3.12286 37.2794
rfemur 9.2276 -4.01345 19.7842
rtibia 58.1767
rfoot -7.9051 -5.25764
rtoes -9.07146
lfemur -41.6632 -2.25895 -25.7161
ltibia 62.757
lfoot -15.6394 -7.47241
ltoes -4.12541
78
root 11.7093 15.7861 11.4581 718.529 -128.532 -4.69552
lowerback 39.4535 6.04577 -5.77277
upperback 9.52329 2.19917 -5.56171
thorax -8.53049 0.176772 -3.71638
lowerneck -8.64281 -0.33539 -6.51185
upperneck 1.88759 0.20183 -0.457581
head 2.08784 -0.000733727 0.987116
rclavicle 3.65764e-014 -9.38264e-014
rhumerus -37.4536 -3.67814 -80.6558
rradius 77.7278
rwrist 10.9414
rhand -33.8381 7.58311
rfingers 7.12502
rthumb -7.02324 -22.2804
lclavicle 3.65764e-014 -9.38264e-014
lhumerus 146.326 151.707 250.678
lradius 76.9996
lwrist -26.434
lhand -29.7228 7.28669
lfingers 7.12502
lthumb -3.04979 37.2446
rfemur 8.69087 -4.17237 19.6098
rtibia 59.2203
rfoot -6.55307 -5.53198
rtoes -9.00142
lfemur -41.2969 -2.26248 -25.727
ltibia 63.0104
lfoot -16.1729 -7.47199
ltoes -3.97486
79
root 11.6028 15.8267 11.3781 718.487 -128.556 -4.66757
lowerback 39.4936 6.0409 -5.85391
upperback 9.58866 2.1486 -5.52593
thorax -8.47333 0.145409 -3.61495
lowerneck -8.3337 -0.302603 -6.5412
upperneck 1.75405 0.222384 -0.484116
head 1.9865 0.0129598 0.981794
rclavicle -4.85035e-014 -3.97569e-014
rhumerus -37.2578 -3.5029 -80.7602
rradius 77.856
rwrist 10.9985
rhand -33.9091 7.41069
rfingers 7.12502
rthumb -7.09186 -22.4505
lclavicle -4.85035e-014 -3.97569e-014
lhumerus 146.642 151.986 251.129
lradius 77.3134
lwrist -26.3945
lhand -29.676 7.32024
lfingers 7.12502
lthumb -3.00457 37.2788
rfemur 8.21486 -4.35531 19.3972
rtibia 60.2036
rfoot -5.47651 -5.54657
rtoes -9.1187
lfemur -40.6959 -2.23075 -25.7583
ltibia 63.1074
lfoot -16.7843 -7.45027
ltoes -3.94451
80
root 11.5005 15.8414 11.3036 718.362 -128.592 -4.55585
lowerback 39.5339 6.01276 -5.88339
upperback 9.65782 2.08995 -5.48929
thorax -8.41172 0.109997 -3.53559
lowerneck -8.00013 -0.249452 -6.55558
upperneck 1.60667 0.265722 -0.481028
head 1.87602 0.039852 0.984039
rclavicle -7.95139e-015 -7.95139e-015
rhumerus -37.0703 -3.3185 -80.9246
rradius 77.984
rwrist 10.9886
rhand -34.1401 7.30083
rfingers 7.12502
rthumb -7.31475 -22.5527
lclavicle -7.95139e-015 -7.95139e-015
lhumerus 146.988 152.219 251.544
lradius 77.5764
lwrist -26.421
lhand -29.6905 7.23375
lfingers 7.12502
lthumb -3.01859 37.1921
rfemur 7.62539 -4.51166 19.2584
rtibia 61.327
rfoot -4.61275 -5.46993
rtoes -9.0302
lfemur -40.2444 -2.15073 -25.7438
ltibia 63.3107
lfoot -17.3688 -7.45916
ltoes -4.10462
81
root 11.3993 15.8563 11.2295 718.308 -128.624 -4.55263
lowerback 39.5829 6.00926 -5.94864
upperback 9.73923 2.04265 -5.45804
thorax -8.33882 0.0781075 -3.44847
lowerneck -7.79749 -0.216263 -6.52705
upperneck 1.56712 0.292339 -0.500674
head 1.82536 0.055043 0.972263
rclavicle 1.74931e-014 -1.59028e-015
rhumerus -36.9076 -3.16265 -81.0436
rradius 78.1572
rwrist 10.9857
rhand -34.2951 7.12006
rfingers 7.12502
rthumb -7.46443 -22.7282
lclavicle 1.74931e-014 -1.59028e-015
lhumerus 147.332 152.537 252.026
lradius 77.8769
lwrist -26.4791
lhand -29.7657 7.17762
lfingers 7.12502
lthumb -3.0912 37.135
rfemur 7.00484 -4.71295 19.0117
rtibia 62.4613
rfoot -4.09614 -5.08893
rtoes -9.28352
lfemur -39.7466 -2.10984 -25.7915
ltibia 63.4691
lfoot -17.8563 -7.45445
ltoes -3.96455
82
root 11.2981 15.8707 11.1567 718.235 -128.651 -4.52328
lowerback 39.635 5.98866 -5.9911
upperback 9.78175 1.98915 -5.4255
thorax -8.31029 0.0471869 -3.37036
lowerneck -7.42287 -0.184192 -6.5279
upperneck 1.43218 0.303734 -0.491758
head 1.71346 0.0662841 0.972451
rclavicle -1.98785e-014 -2.70347e-014
rhumerus -36.825 -3.05316 -81.1829
rradius 78.2946
rwrist 11.0538
rhand -34.5006 7.09958
rfingers 7.12502
rthumb -7.6628 -22.7416
lclavicle -1.98785e-014 -2.70347e-014
lhumerus 147.565 152.896 252.457
lradius 78.1828
lwrist -26.5649
lhand -29.7656 7.14433
lfingers 7.12502
lthumb -3.09107 37.1017
rfemur 6.34204 -4.94471 18.7697
rtibia 63.621
rfoot -3.73287 -4.71153
rtoes -9.73671
lfemur -39.2716 -2.06947 -25.8218
ltibia 63.6717
lfoot -18.3948 -7.46192
ltoes -4.0781
